<svg width="42" height="13" viewBox="0 0 42 13" fill="none" xmlns="http://www.w3.org/2000/svg">
<mask id="path-1-outside-1_3_375" maskUnits="userSpaceOnUse" x="0" y="0" width="42" height="13" fill="black">
<rect fill="white" width="42" height="13"/>
<path d="M5.43804 12C4.72301 12 4.07164 11.9074 3.48394 11.7221C2.89624 11.527 2.40159 11.2735 2 10.9614L2.70524 9.79122C3.05786 10.0838 3.45456 10.3227 3.89533 10.508C4.33611 10.6933 4.85034 10.7859 5.43804 10.7859C6.14328 10.7859 6.7016 10.6396 7.11299 10.3471C7.52437 10.0545 7.73007 9.65957 7.73007 9.16223C7.73007 8.87943 7.6713 8.63076 7.55376 8.41622C7.43622 8.19193 7.20604 7.97739 6.86321 7.77261C6.53018 7.55807 6.03554 7.3289 5.37927 7.08511C4.67403 6.81206 4.11082 6.53901 3.68964 6.26596C3.26845 5.98316 2.96481 5.66622 2.7787 5.31516C2.60239 4.95434 2.51424 4.53014 2.51424 4.04255C2.51424 3.55496 2.64647 3.11613 2.91093 2.72606C3.18519 2.32624 3.58189 2.00931 4.10103 1.77527C4.62996 1.53147 5.26663 1.40957 6.01105 1.40957C6.61834 1.40957 7.16196 1.47296 7.64192 1.59973C8.13166 1.71675 8.60672 1.88741 9.06709 2.1117L8.55285 3.29654C8.21982 3.10151 7.82802 2.9406 7.37745 2.81383C6.93668 2.6773 6.47141 2.60904 5.98166 2.60904C5.33519 2.60904 4.82586 2.73581 4.45365 2.98936C4.08144 3.24291 3.89533 3.56959 3.89533 3.96941C3.89533 4.22296 3.9492 4.44725 4.05695 4.64229C4.16469 4.83732 4.37529 5.02748 4.68873 5.21277C5.01196 5.39805 5.49191 5.60771 6.12859 5.84176C6.8926 6.12456 7.49499 6.42199 7.93576 6.73404C8.38633 7.0461 8.70467 7.38741 8.89078 7.75798C9.07688 8.11879 9.16993 8.53324 9.16993 9.00133C9.16993 9.63519 9.00832 10.1764 8.68508 10.625C8.37164 11.0736 7.93087 11.4149 7.36276 11.6489C6.80444 11.883 6.16287 12 5.43804 12Z"/>
<path d="M14.009 12C13.3724 12 12.7945 11.8391 12.2753 11.5173C11.7562 11.1955 11.3399 10.742 11.0265 10.1569C10.7228 9.56206 10.571 8.8648 10.571 8.06516C10.571 7.30452 10.7228 6.6219 11.0265 6.01729C11.3399 5.41268 11.766 4.93484 12.3047 4.58378C12.8532 4.22296 13.4801 4.04255 14.1854 4.04255C14.6261 4.04255 15.0228 4.12057 15.3754 4.2766C15.7379 4.42287 16.0513 4.60816 16.3158 4.83245V4.21808H17.5205V9.98138C17.5205 10.352 17.6087 10.5957 17.785 10.7128C17.9711 10.82 18.1719 10.8737 18.3874 10.8737L18.1082 11.8976C17.1679 11.8976 16.5998 11.5173 16.4039 10.7566C16.1786 11.0687 15.8701 11.3564 15.4783 11.6197C15.0963 11.8732 14.6065 12 14.009 12ZM14.3029 10.8298C14.6751 10.8298 15.0277 10.742 15.3608 10.5665C15.6938 10.3812 15.9729 10.152 16.1982 9.87899V5.79787C15.9338 5.61259 15.6399 5.46631 15.3167 5.35904C15.0032 5.24202 14.6702 5.18351 14.3176 5.18351C13.8474 5.18351 13.4311 5.30541 13.0687 5.5492C12.7161 5.78324 12.4369 6.1148 12.2313 6.54388C12.0256 6.96321 11.9227 7.45567 11.9227 8.02128C11.9227 8.56738 12.0256 9.05496 12.2313 9.48404C12.4369 9.90337 12.721 10.2349 13.0834 10.4787C13.4458 10.7128 13.8523 10.8298 14.3029 10.8298Z"/>
<path d="M22.4747 12C22.0241 12 21.6176 11.9171 21.2552 11.7513C20.8928 11.5758 20.6038 11.2979 20.3883 10.9176C20.1826 10.5372 20.0798 10.0448 20.0798 9.44016V1H21.4021V9.30851C21.4021 9.83511 21.5099 10.2252 21.7254 10.4787C21.9506 10.7323 22.2592 10.859 22.651 10.859C22.8371 10.859 23.0183 10.8395 23.1946 10.8005C23.3807 10.7518 23.5374 10.6981 23.6648 10.6396L23.988 11.7074C23.8117 11.7855 23.5913 11.8537 23.3268 11.9122C23.0722 11.9707 22.7881 12 22.4747 12Z"/>
<path d="M28.2349 12C27.5101 12 26.8587 11.8342 26.2808 11.5027C25.7029 11.1613 25.2475 10.6933 24.9144 10.0984C24.5912 9.49379 24.4296 8.80142 24.4296 8.02128C24.4296 7.20213 24.5961 6.49512 24.9291 5.90027C25.2621 5.30541 25.7176 4.84707 26.2955 4.52527C26.8734 4.20346 27.5199 4.04255 28.2349 4.04255C28.95 4.04255 29.5915 4.20346 30.1596 4.52527C30.7375 4.84707 31.193 5.30541 31.526 5.90027C31.8689 6.48537 32.0403 7.18262 32.0403 7.99202C32.0403 8.80142 31.8738 9.50842 31.5407 10.113C31.2077 10.7079 30.7522 11.1711 30.1743 11.5027C29.6062 11.8342 28.9598 12 28.2349 12ZM28.2349 10.8298C29.0087 10.8298 29.6111 10.5714 30.0421 10.0545C30.4731 9.52793 30.6886 8.85018 30.6886 8.02128C30.6886 7.51418 30.5808 7.05097 30.3653 6.63165C30.1498 6.20257 29.856 5.86126 29.4838 5.60771C29.1214 5.34441 28.7051 5.21277 28.2349 5.21277C27.4611 5.21277 26.8587 5.46631 26.4278 5.9734C25.9968 6.4805 25.7813 7.15337 25.7813 7.99202C25.7813 8.49911 25.889 8.97207 26.1045 9.4109C26.32 9.83998 26.609 10.1862 26.9714 10.4495C27.3436 10.703 27.7648 10.8298 28.2349 10.8298Z"/>
<path d="M34.5794 11.8245V4.21808H35.8576V5.49069C36.1319 5.08112 36.4796 4.7398 36.9008 4.46676C37.3318 4.18395 37.8411 4.04255 38.4288 4.04255C39.2908 4.04255 39.9323 4.30098 40.3535 4.81782C40.7845 5.33466 41 6.01729 41 6.86569V11.8245H39.6777V7.01197C39.6777 6.46587 39.5454 6.02704 39.281 5.69548C39.0263 5.36392 38.6688 5.19814 38.2084 5.19814C37.7579 5.19814 37.3318 5.35904 36.9302 5.68085C36.5286 5.99291 36.1858 6.36347 35.9017 6.79255V11.8245H34.5794Z"/>
</mask>
<path d="M5.43804 12C4.72301 12 4.07164 11.9074 3.48394 11.7221C2.89624 11.527 2.40159 11.2735 2 10.9614L2.70524 9.79122C3.05786 10.0838 3.45456 10.3227 3.89533 10.508C4.33611 10.6933 4.85034 10.7859 5.43804 10.7859C6.14328 10.7859 6.7016 10.6396 7.11299 10.3471C7.52437 10.0545 7.73007 9.65957 7.73007 9.16223C7.73007 8.87943 7.6713 8.63076 7.55376 8.41622C7.43622 8.19193 7.20604 7.97739 6.86321 7.77261C6.53018 7.55807 6.03554 7.3289 5.37927 7.08511C4.67403 6.81206 4.11082 6.53901 3.68964 6.26596C3.26845 5.98316 2.96481 5.66622 2.7787 5.31516C2.60239 4.95434 2.51424 4.53014 2.51424 4.04255C2.51424 3.55496 2.64647 3.11613 2.91093 2.72606C3.18519 2.32624 3.58189 2.00931 4.10103 1.77527C4.62996 1.53147 5.26663 1.40957 6.01105 1.40957C6.61834 1.40957 7.16196 1.47296 7.64192 1.59973C8.13166 1.71675 8.60672 1.88741 9.06709 2.1117L8.55285 3.29654C8.21982 3.10151 7.82802 2.9406 7.37745 2.81383C6.93668 2.6773 6.47141 2.60904 5.98166 2.60904C5.33519 2.60904 4.82586 2.73581 4.45365 2.98936C4.08144 3.24291 3.89533 3.56959 3.89533 3.96941C3.89533 4.22296 3.9492 4.44725 4.05695 4.64229C4.16469 4.83732 4.37529 5.02748 4.68873 5.21277C5.01196 5.39805 5.49191 5.60771 6.12859 5.84176C6.8926 6.12456 7.49499 6.42199 7.93576 6.73404C8.38633 7.0461 8.70467 7.38741 8.89078 7.75798C9.07688 8.11879 9.16993 8.53324 9.16993 9.00133C9.16993 9.63519 9.00832 10.1764 8.68508 10.625C8.37164 11.0736 7.93087 11.4149 7.36276 11.6489C6.80444 11.883 6.16287 12 5.43804 12Z" fill="white"/>
<path d="M14.009 12C13.3724 12 12.7945 11.8391 12.2753 11.5173C11.7562 11.1955 11.3399 10.742 11.0265 10.1569C10.7228 9.56206 10.571 8.8648 10.571 8.06516C10.571 7.30452 10.7228 6.6219 11.0265 6.01729C11.3399 5.41268 11.766 4.93484 12.3047 4.58378C12.8532 4.22296 13.4801 4.04255 14.1854 4.04255C14.6261 4.04255 15.0228 4.12057 15.3754 4.2766C15.7379 4.42287 16.0513 4.60816 16.3158 4.83245V4.21808H17.5205V9.98138C17.5205 10.352 17.6087 10.5957 17.785 10.7128C17.9711 10.82 18.1719 10.8737 18.3874 10.8737L18.1082 11.8976C17.1679 11.8976 16.5998 11.5173 16.4039 10.7566C16.1786 11.0687 15.8701 11.3564 15.4783 11.6197C15.0963 11.8732 14.6065 12 14.009 12ZM14.3029 10.8298C14.6751 10.8298 15.0277 10.742 15.3608 10.5665C15.6938 10.3812 15.9729 10.152 16.1982 9.87899V5.79787C15.9338 5.61259 15.6399 5.46631 15.3167 5.35904C15.0032 5.24202 14.6702 5.18351 14.3176 5.18351C13.8474 5.18351 13.4311 5.30541 13.0687 5.5492C12.7161 5.78324 12.4369 6.1148 12.2313 6.54388C12.0256 6.96321 11.9227 7.45567 11.9227 8.02128C11.9227 8.56738 12.0256 9.05496 12.2313 9.48404C12.4369 9.90337 12.721 10.2349 13.0834 10.4787C13.4458 10.7128 13.8523 10.8298 14.3029 10.8298Z" fill="white"/>
<path d="M22.4747 12C22.0241 12 21.6176 11.9171 21.2552 11.7513C20.8928 11.5758 20.6038 11.2979 20.3883 10.9176C20.1826 10.5372 20.0798 10.0448 20.0798 9.44016V1H21.4021V9.30851C21.4021 9.83511 21.5099 10.2252 21.7254 10.4787C21.9506 10.7323 22.2592 10.859 22.651 10.859C22.8371 10.859 23.0183 10.8395 23.1946 10.8005C23.3807 10.7518 23.5374 10.6981 23.6648 10.6396L23.988 11.7074C23.8117 11.7855 23.5913 11.8537 23.3268 11.9122C23.0722 11.9707 22.7881 12 22.4747 12Z" fill="white"/>
<path d="M28.2349 12C27.5101 12 26.8587 11.8342 26.2808 11.5027C25.7029 11.1613 25.2475 10.6933 24.9144 10.0984C24.5912 9.49379 24.4296 8.80142 24.4296 8.02128C24.4296 7.20213 24.5961 6.49512 24.9291 5.90027C25.2621 5.30541 25.7176 4.84707 26.2955 4.52527C26.8734 4.20346 27.5199 4.04255 28.2349 4.04255C28.95 4.04255 29.5915 4.20346 30.1596 4.52527C30.7375 4.84707 31.193 5.30541 31.526 5.90027C31.8689 6.48537 32.0403 7.18262 32.0403 7.99202C32.0403 8.80142 31.8738 9.50842 31.5407 10.113C31.2077 10.7079 30.7522 11.1711 30.1743 11.5027C29.6062 11.8342 28.9598 12 28.2349 12ZM28.2349 10.8298C29.0087 10.8298 29.6111 10.5714 30.0421 10.0545C30.4731 9.52793 30.6886 8.85018 30.6886 8.02128C30.6886 7.51418 30.5808 7.05097 30.3653 6.63165C30.1498 6.20257 29.856 5.86126 29.4838 5.60771C29.1214 5.34441 28.7051 5.21277 28.2349 5.21277C27.4611 5.21277 26.8587 5.46631 26.4278 5.9734C25.9968 6.4805 25.7813 7.15337 25.7813 7.99202C25.7813 8.49911 25.889 8.97207 26.1045 9.4109C26.32 9.83998 26.609 10.1862 26.9714 10.4495C27.3436 10.703 27.7648 10.8298 28.2349 10.8298Z" fill="white"/>
<path d="M34.5794 11.8245V4.21808H35.8576V5.49069C36.1319 5.08112 36.4796 4.7398 36.9008 4.46676C37.3318 4.18395 37.8411 4.04255 38.4288 4.04255C39.2908 4.04255 39.9323 4.30098 40.3535 4.81782C40.7845 5.33466 41 6.01729 41 6.86569V11.8245H39.6777V7.01197C39.6777 6.46587 39.5454 6.02704 39.281 5.69548C39.0263 5.36392 38.6688 5.19814 38.2084 5.19814C37.7579 5.19814 37.3318 5.35904 36.9302 5.68085C36.5286 5.99291 36.1858 6.36347 35.9017 6.79255V11.8245H34.5794Z" fill="white"/>
<path d="M5.43804 12C4.72301 12 4.07164 11.9074 3.48394 11.7221C2.89624 11.527 2.40159 11.2735 2 10.9614L2.70524 9.79122C3.05786 10.0838 3.45456 10.3227 3.89533 10.508C4.33611 10.6933 4.85034 10.7859 5.43804 10.7859C6.14328 10.7859 6.7016 10.6396 7.11299 10.3471C7.52437 10.0545 7.73007 9.65957 7.73007 9.16223C7.73007 8.87943 7.6713 8.63076 7.55376 8.41622C7.43622 8.19193 7.20604 7.97739 6.86321 7.77261C6.53018 7.55807 6.03554 7.3289 5.37927 7.08511C4.67403 6.81206 4.11082 6.53901 3.68964 6.26596C3.26845 5.98316 2.96481 5.66622 2.7787 5.31516C2.60239 4.95434 2.51424 4.53014 2.51424 4.04255C2.51424 3.55496 2.64647 3.11613 2.91093 2.72606C3.18519 2.32624 3.58189 2.00931 4.10103 1.77527C4.62996 1.53147 5.26663 1.40957 6.01105 1.40957C6.61834 1.40957 7.16196 1.47296 7.64192 1.59973C8.13166 1.71675 8.60672 1.88741 9.06709 2.1117L8.55285 3.29654C8.21982 3.10151 7.82802 2.9406 7.37745 2.81383C6.93668 2.6773 6.47141 2.60904 5.98166 2.60904C5.33519 2.60904 4.82586 2.73581 4.45365 2.98936C4.08144 3.24291 3.89533 3.56959 3.89533 3.96941C3.89533 4.22296 3.9492 4.44725 4.05695 4.64229C4.16469 4.83732 4.37529 5.02748 4.68873 5.21277C5.01196 5.39805 5.49191 5.60771 6.12859 5.84176C6.8926 6.12456 7.49499 6.42199 7.93576 6.73404C8.38633 7.0461 8.70467 7.38741 8.89078 7.75798C9.07688 8.11879 9.16993 8.53324 9.16993 9.00133C9.16993 9.63519 9.00832 10.1764 8.68508 10.625C8.37164 11.0736 7.93087 11.4149 7.36276 11.6489C6.80444 11.883 6.16287 12 5.43804 12Z" stroke="#BDBDBD" stroke-width="2" mask="url(#path-1-outside-1_3_375)"/>
<path d="M14.009 12C13.3724 12 12.7945 11.8391 12.2753 11.5173C11.7562 11.1955 11.3399 10.742 11.0265 10.1569C10.7228 9.56206 10.571 8.8648 10.571 8.06516C10.571 7.30452 10.7228 6.6219 11.0265 6.01729C11.3399 5.41268 11.766 4.93484 12.3047 4.58378C12.8532 4.22296 13.4801 4.04255 14.1854 4.04255C14.6261 4.04255 15.0228 4.12057 15.3754 4.2766C15.7379 4.42287 16.0513 4.60816 16.3158 4.83245V4.21808H17.5205V9.98138C17.5205 10.352 17.6087 10.5957 17.785 10.7128C17.9711 10.82 18.1719 10.8737 18.3874 10.8737L18.1082 11.8976C17.1679 11.8976 16.5998 11.5173 16.4039 10.7566C16.1786 11.0687 15.8701 11.3564 15.4783 11.6197C15.0963 11.8732 14.6065 12 14.009 12ZM14.3029 10.8298C14.6751 10.8298 15.0277 10.742 15.3608 10.5665C15.6938 10.3812 15.9729 10.152 16.1982 9.87899V5.79787C15.9338 5.61259 15.6399 5.46631 15.3167 5.35904C15.0032 5.24202 14.6702 5.18351 14.3176 5.18351C13.8474 5.18351 13.4311 5.30541 13.0687 5.5492C12.7161 5.78324 12.4369 6.1148 12.2313 6.54388C12.0256 6.96321 11.9227 7.45567 11.9227 8.02128C11.9227 8.56738 12.0256 9.05496 12.2313 9.48404C12.4369 9.90337 12.721 10.2349 13.0834 10.4787C13.4458 10.7128 13.8523 10.8298 14.3029 10.8298Z" stroke="#BDBDBD" stroke-width="2" mask="url(#path-1-outside-1_3_375)"/>
<path d="M22.4747 12C22.0241 12 21.6176 11.9171 21.2552 11.7513C20.8928 11.5758 20.6038 11.2979 20.3883 10.9176C20.1826 10.5372 20.0798 10.0448 20.0798 9.44016V1H21.4021V9.30851C21.4021 9.83511 21.5099 10.2252 21.7254 10.4787C21.9506 10.7323 22.2592 10.859 22.651 10.859C22.8371 10.859 23.0183 10.8395 23.1946 10.8005C23.3807 10.7518 23.5374 10.6981 23.6648 10.6396L23.988 11.7074C23.8117 11.7855 23.5913 11.8537 23.3268 11.9122C23.0722 11.9707 22.7881 12 22.4747 12Z" stroke="#BDBDBD" stroke-width="2" mask="url(#path-1-outside-1_3_375)"/>
<path d="M28.2349 12C27.5101 12 26.8587 11.8342 26.2808 11.5027C25.7029 11.1613 25.2475 10.6933 24.9144 10.0984C24.5912 9.49379 24.4296 8.80142 24.4296 8.02128C24.4296 7.20213 24.5961 6.49512 24.9291 5.90027C25.2621 5.30541 25.7176 4.84707 26.2955 4.52527C26.8734 4.20346 27.5199 4.04255 28.2349 4.04255C28.95 4.04255 29.5915 4.20346 30.1596 4.52527C30.7375 4.84707 31.193 5.30541 31.526 5.90027C31.8689 6.48537 32.0403 7.18262 32.0403 7.99202C32.0403 8.80142 31.8738 9.50842 31.5407 10.113C31.2077 10.7079 30.7522 11.1711 30.1743 11.5027C29.6062 11.8342 28.9598 12 28.2349 12ZM28.2349 10.8298C29.0087 10.8298 29.6111 10.5714 30.0421 10.0545C30.4731 9.52793 30.6886 8.85018 30.6886 8.02128C30.6886 7.51418 30.5808 7.05097 30.3653 6.63165C30.1498 6.20257 29.856 5.86126 29.4838 5.60771C29.1214 5.34441 28.7051 5.21277 28.2349 5.21277C27.4611 5.21277 26.8587 5.46631 26.4278 5.9734C25.9968 6.4805 25.7813 7.15337 25.7813 7.99202C25.7813 8.49911 25.889 8.97207 26.1045 9.4109C26.32 9.83998 26.609 10.1862 26.9714 10.4495C27.3436 10.703 27.7648 10.8298 28.2349 10.8298Z" stroke="#BDBDBD" stroke-width="2" mask="url(#path-1-outside-1_3_375)"/>
<path d="M34.5794 11.8245V4.21808H35.8576V5.49069C36.1319 5.08112 36.4796 4.7398 36.9008 4.46676C37.3318 4.18395 37.8411 4.04255 38.4288 4.04255C39.2908 4.04255 39.9323 4.30098 40.3535 4.81782C40.7845 5.33466 41 6.01729 41 6.86569V11.8245H39.6777V7.01197C39.6777 6.46587 39.5454 6.02704 39.281 5.69548C39.0263 5.36392 38.6688 5.19814 38.2084 5.19814C37.7579 5.19814 37.3318 5.35904 36.9302 5.68085C36.5286 5.99291 36.1858 6.36347 35.9017 6.79255V11.8245H34.5794Z" stroke="#BDBDBD" stroke-width="2" mask="url(#path-1-outside-1_3_375)"/>
</svg>
